<svg xmlns="http://www.w3.org/2000/svg" viewBox="0 0 406 296" width="406" height="296" font-family="'Segoe UI', 'Noto Sans KR', system-ui, sans-serif" role="img" aria-label="number가 5일 때 counts 배열이 i=1부터 5까지 각 단계에서 배수 자리에 1씩 누적되는 과정">
<rect x="8" y="8" width="390" height="280" rx="8" fill="#ffffff" stroke="#dcdee2" stroke-width="1"/>
<rect x="8" y="8" width="78" height="36" fill="#eef0f3" stroke="#e6e8eb" stroke-width="1"/>
<text x="47" y="26" fill="#4a4d52" font-size="13" font-weight="600" text-anchor="middle" dominant-baseline="central">counts</text>
<rect x="86" y="8" width="52" height="36" fill="#eef0f3" stroke="#e6e8eb" stroke-width="1"/>
<text x="112" y="26" fill="#2b2b2b" font-size="15" font-weight="700" text-anchor="middle" dominant-baseline="central">0</text>
<rect x="138" y="8" width="52" height="36" fill="#eef0f3" stroke="#e6e8eb" stroke-width="1"/>
<text x="164" y="26" fill="#2b2b2b" font-size="15" font-weight="700" text-anchor="middle" dominant-baseline="central">1</text>
<rect x="190" y="8" width="52" height="36" fill="#eef0f3" stroke="#e6e8eb" stroke-width="1"/>
<text x="216" y="26" fill="#2b2b2b" font-size="15" font-weight="700" text-anchor="middle" dominant-baseline="central">2</text>
<rect x="242" y="8" width="52" height="36" fill="#eef0f3" stroke="#e6e8eb" stroke-width="1"/>
<text x="268" y="26" fill="#2b2b2b" font-size="15" font-weight="700" text-anchor="middle" dominant-baseline="central">3</text>
<rect x="294" y="8" width="52" height="36" fill="#eef0f3" stroke="#e6e8eb" stroke-width="1"/>
<text x="320" y="26" fill="#2b2b2b" font-size="15" font-weight="700" text-anchor="middle" dominant-baseline="central">4</text>
<rect x="346" y="8" width="52" height="36" fill="#eef0f3" stroke="#e6e8eb" stroke-width="1"/>
<text x="372" y="26" fill="#2b2b2b" font-size="15" font-weight="700" text-anchor="middle" dominant-baseline="central">5</text>
<rect x="8" y="44" width="78" height="40" fill="#eef0f3" stroke="#e6e8eb" stroke-width="1"/>
<text x="47" y="64" fill="#4a4d52" font-size="14" font-weight="600" text-anchor="middle" dominant-baseline="central">i = 1</text>
<rect x="86" y="44" width="52" height="40" fill="#f0f1f3" stroke="#e6e8eb" stroke-width="1"/>
<text x="112" y="64" fill="#b3b6bb" font-size="16" font-weight="600" text-anchor="middle" dominant-baseline="central">0</text>
<rect x="138" y="44" width="52" height="40" fill="#3b9bfd" stroke="#e6e8eb" stroke-width="1"/>
<text x="164" y="64" fill="#ffffff" font-size="16" font-weight="600" text-anchor="middle" dominant-baseline="central">1</text>
<rect x="190" y="44" width="52" height="40" fill="#3b9bfd" stroke="#e6e8eb" stroke-width="1"/>
<text x="216" y="64" fill="#ffffff" font-size="16" font-weight="600" text-anchor="middle" dominant-baseline="central">1</text>
<rect x="242" y="44" width="52" height="40" fill="#3b9bfd" stroke="#e6e8eb" stroke-width="1"/>
<text x="268" y="64" fill="#ffffff" font-size="16" font-weight="600" text-anchor="middle" dominant-baseline="central">1</text>
<rect x="294" y="44" width="52" height="40" fill="#3b9bfd" stroke="#e6e8eb" stroke-width="1"/>
<text x="320" y="64" fill="#ffffff" font-size="16" font-weight="600" text-anchor="middle" dominant-baseline="central">1</text>
<rect x="346" y="44" width="52" height="40" fill="#3b9bfd" stroke="#e6e8eb" stroke-width="1"/>
<text x="372" y="64" fill="#ffffff" font-size="16" font-weight="600" text-anchor="middle" dominant-baseline="central">1</text>
<rect x="8" y="84" width="78" height="40" fill="#eef0f3" stroke="#e6e8eb" stroke-width="1"/>
<text x="47" y="104" fill="#4a4d52" font-size="14" font-weight="600" text-anchor="middle" dominant-baseline="central">i = 2</text>
<rect x="86" y="84" width="52" height="40" fill="#f0f1f3" stroke="#e6e8eb" stroke-width="1"/>
<text x="112" y="104" fill="#b3b6bb" font-size="16" font-weight="600" text-anchor="middle" dominant-baseline="central">0</text>
<rect x="138" y="84" width="52" height="40" fill="#ffffff" stroke="#e6e8eb" stroke-width="1"/>
<text x="164" y="104" fill="#2b2b2b" font-size="16" font-weight="600" text-anchor="middle" dominant-baseline="central">1</text>
<rect x="190" y="84" width="52" height="40" fill="#3b9bfd" stroke="#e6e8eb" stroke-width="1"/>
<text x="216" y="104" fill="#ffffff" font-size="16" font-weight="600" text-anchor="middle" dominant-baseline="central">2</text>
<rect x="242" y="84" width="52" height="40" fill="#ffffff" stroke="#e6e8eb" stroke-width="1"/>
<text x="268" y="104" fill="#2b2b2b" font-size="16" font-weight="600" text-anchor="middle" dominant-baseline="central">1</text>
<rect x="294" y="84" width="52" height="40" fill="#3b9bfd" stroke="#e6e8eb" stroke-width="1"/>
<text x="320" y="104" fill="#ffffff" font-size="16" font-weight="600" text-anchor="middle" dominant-baseline="central">2</text>
<rect x="346" y="84" width="52" height="40" fill="#ffffff" stroke="#e6e8eb" stroke-width="1"/>
<text x="372" y="104" fill="#2b2b2b" font-size="16" font-weight="600" text-anchor="middle" dominant-baseline="central">1</text>
<rect x="8" y="124" width="78" height="40" fill="#eef0f3" stroke="#e6e8eb" stroke-width="1"/>
<text x="47" y="144" fill="#4a4d52" font-size="14" font-weight="600" text-anchor="middle" dominant-baseline="central">i = 3</text>
<rect x="86" y="124" width="52" height="40" fill="#f0f1f3" stroke="#e6e8eb" stroke-width="1"/>
<text x="112" y="144" fill="#b3b6bb" font-size="16" font-weight="600" text-anchor="middle" dominant-baseline="central">0</text>
<rect x="138" y="124" width="52" height="40" fill="#ffffff" stroke="#e6e8eb" stroke-width="1"/>
<text x="164" y="144" fill="#2b2b2b" font-size="16" font-weight="600" text-anchor="middle" dominant-baseline="central">1</text>
<rect x="190" y="124" width="52" height="40" fill="#ffffff" stroke="#e6e8eb" stroke-width="1"/>
<text x="216" y="144" fill="#2b2b2b" font-size="16" font-weight="600" text-anchor="middle" dominant-baseline="central">2</text>
<rect x="242" y="124" width="52" height="40" fill="#3b9bfd" stroke="#e6e8eb" stroke-width="1"/>
<text x="268" y="144" fill="#ffffff" font-size="16" font-weight="600" text-anchor="middle" dominant-baseline="central">2</text>
<rect x="294" y="124" width="52" height="40" fill="#ffffff" stroke="#e6e8eb" stroke-width="1"/>
<text x="320" y="144" fill="#2b2b2b" font-size="16" font-weight="600" text-anchor="middle" dominant-baseline="central">2</text>
<rect x="346" y="124" width="52" height="40" fill="#ffffff" stroke="#e6e8eb" stroke-width="1"/>
<text x="372" y="144" fill="#2b2b2b" font-size="16" font-weight="600" text-anchor="middle" dominant-baseline="central">1</text>
<rect x="8" y="164" width="78" height="40" fill="#eef0f3" stroke="#e6e8eb" stroke-width="1"/>
<text x="47" y="184" fill="#4a4d52" font-size="14" font-weight="600" text-anchor="middle" dominant-baseline="central">i = 4</text>
<rect x="86" y="164" width="52" height="40" fill="#f0f1f3" stroke="#e6e8eb" stroke-width="1"/>
<text x="112" y="184" fill="#b3b6bb" font-size="16" font-weight="600" text-anchor="middle" dominant-baseline="central">0</text>
<rect x="138" y="164" width="52" height="40" fill="#ffffff" stroke="#e6e8eb" stroke-width="1"/>
<text x="164" y="184" fill="#2b2b2b" font-size="16" font-weight="600" text-anchor="middle" dominant-baseline="central">1</text>
<rect x="190" y="164" width="52" height="40" fill="#ffffff" stroke="#e6e8eb" stroke-width="1"/>
<text x="216" y="184" fill="#2b2b2b" font-size="16" font-weight="600" text-anchor="middle" dominant-baseline="central">2</text>
<rect x="242" y="164" width="52" height="40" fill="#ffffff" stroke="#e6e8eb" stroke-width="1"/>
<text x="268" y="184" fill="#2b2b2b" font-size="16" font-weight="600" text-anchor="middle" dominant-baseline="central">2</text>
<rect x="294" y="164" width="52" height="40" fill="#3b9bfd" stroke="#e6e8eb" stroke-width="1"/>
<text x="320" y="184" fill="#ffffff" font-size="16" font-weight="600" text-anchor="middle" dominant-baseline="central">3</text>
<rect x="346" y="164" width="52" height="40" fill="#ffffff" stroke="#e6e8eb" stroke-width="1"/>
<text x="372" y="184" fill="#2b2b2b" font-size="16" font-weight="600" text-anchor="middle" dominant-baseline="central">1</text>
<rect x="8" y="204" width="78" height="40" fill="#eef0f3" stroke="#e6e8eb" stroke-width="1"/>
<text x="47" y="224" fill="#4a4d52" font-size="14" font-weight="600" text-anchor="middle" dominant-baseline="central">i = 5</text>
<rect x="86" y="204" width="52" height="40" fill="#f0f1f3" stroke="#e6e8eb" stroke-width="1"/>
<text x="112" y="224" fill="#b3b6bb" font-size="16" font-weight="600" text-anchor="middle" dominant-baseline="central">0</text>
<rect x="138" y="204" width="52" height="40" fill="#ffffff" stroke="#e6e8eb" stroke-width="1"/>
<text x="164" y="224" fill="#2b2b2b" font-size="16" font-weight="600" text-anchor="middle" dominant-baseline="central">1</text>
<rect x="190" y="204" width="52" height="40" fill="#ffffff" stroke="#e6e8eb" stroke-width="1"/>
<text x="216" y="224" fill="#2b2b2b" font-size="16" font-weight="600" text-anchor="middle" dominant-baseline="central">2</text>
<rect x="242" y="204" width="52" height="40" fill="#ffffff" stroke="#e6e8eb" stroke-width="1"/>
<text x="268" y="224" fill="#2b2b2b" font-size="16" font-weight="600" text-anchor="middle" dominant-baseline="central">2</text>
<rect x="294" y="204" width="52" height="40" fill="#ffffff" stroke="#e6e8eb" stroke-width="1"/>
<text x="320" y="224" fill="#2b2b2b" font-size="16" font-weight="600" text-anchor="middle" dominant-baseline="central">3</text>
<rect x="346" y="204" width="52" height="40" fill="#3b9bfd" stroke="#e6e8eb" stroke-width="1"/>
<text x="372" y="224" fill="#ffffff" font-size="16" font-weight="600" text-anchor="middle" dominant-baseline="central">2</text>
<rect x="8" y="244" width="78" height="44" fill="#eef0f3" stroke="#e6e8eb" stroke-width="1"/>
<text x="47" y="266" fill="#4a4d52" font-size="12" font-weight="600" text-anchor="middle" dominant-baseline="central">약수 개수</text>
<rect x="86" y="244" width="52" height="44" fill="#f0f1f3" stroke="#e6e8eb" stroke-width="1"/>
<text x="112" y="266" fill="#b3b6bb" font-size="16" font-weight="600" text-anchor="middle" dominant-baseline="central">–</text>
<rect x="138" y="244" width="52" height="44" fill="#ffe8d6" stroke="#e6e8eb" stroke-width="1"/>
<text x="164" y="266" fill="#8a4408" font-size="16" font-weight="700" text-anchor="middle" dominant-baseline="central">1</text>
<rect x="190" y="244" width="52" height="44" fill="#ffe8d6" stroke="#e6e8eb" stroke-width="1"/>
<text x="216" y="266" fill="#8a4408" font-size="16" font-weight="700" text-anchor="middle" dominant-baseline="central">2</text>
<rect x="242" y="244" width="52" height="44" fill="#ffe8d6" stroke="#e6e8eb" stroke-width="1"/>
<text x="268" y="266" fill="#8a4408" font-size="16" font-weight="700" text-anchor="middle" dominant-baseline="central">2</text>
<rect x="294" y="244" width="52" height="44" fill="#ffe8d6" stroke="#e6e8eb" stroke-width="1"/>
<text x="320" y="266" fill="#8a4408" font-size="16" font-weight="700" text-anchor="middle" dominant-baseline="central">3</text>
<rect x="346" y="244" width="52" height="44" fill="#ffe8d6" stroke="#e6e8eb" stroke-width="1"/>
<text x="372" y="266" fill="#8a4408" font-size="16" font-weight="700" text-anchor="middle" dominant-baseline="central">2</text>
</svg>
